<?xml version="1.0" standalone="no"?>
<!DOCTYPE svg PUBLIC "-//W3C//DTD SVG 20010904//EN"
 "http://www.w3.org/TR/2001/REC-SVG-20010904/DTD/svg10.dtd">
<svg version="1.0" xmlns="http://www.w3.org/2000/svg"
 width="650.000000pt" height="95.000000pt" viewBox="0 0 650.000000 95.000000"
 preserveAspectRatio="xMidYMid meet">

<g transform="translate(0.000000,95.000000) scale(0.100000,-0.100000)"
fill="#000000" stroke="none">
<path d="M0 475 l0 -475 120 0 120 0 0 265 0 265 350 0 c337 0 351 -1 370 -20
19 -19 20 -33 20 -265 l0 -245 120 0 121 0 -3 309 c-3 296 -4 311 -24 338 -11
15 -36 38 -54 51 -33 22 -33 22 -466 22 l-434 0 0 115 0 115 -120 0 -120 0 0
-475z"/>
<path d="M2590 475 l0 -475 125 0 125 0 0 475 0 475 -125 0 -125 0 0 -475z"/>
<path d="M3038 838 l-3 -113 -78 -3 -78 -3 3 -92 3 -92 78 -3 77 -3 0 -194 c0
-112 4 -206 11 -222 15 -42 68 -92 109 -103 20 -6 213 -10 463 -10 l427 0 0
100 0 100 -365 0 c-352 0 -366 1 -385 20 -18 18 -20 33 -20 165 l0 145 330 0
330 0 0 95 0 95 -330 0 -330 0 0 115 0 115 -120 0 -119 0 -3 -112z"/>
<path d="M1560 625 l0 -95 324 0 325 0 20 -26 c11 -15 18 -30 15 -35 -3 -5
-183 -9 -401 -9 -380 0 -397 -1 -432 -21 -64 -36 -85 -78 -89 -184 -6 -137 21
-199 102 -236 38 -17 76 -19 549 -19 l507 0 0 304 c0 299 0 304 -23 337 -12
18 -38 44 -56 56 -34 23 -34 23 -437 23 l-404 0 0 -95z m690 -395 l0 -30 -340
0 c-294 0 -341 2 -346 15 -4 8 -4 22 0 30 5 13 52 15 346 15 l340 0 0 -30z"/>
<path d="M4197 695 c-71 -49 -77 -74 -77 -329 0 -134 4 -236 11 -253 15 -42
68 -92 109 -103 21 -6 240 -10 543 -10 l508 0 -3 98 -3 97 -448 5 c-431 5
-449 6 -463 25 -8 10 -13 24 -11 30 3 7 157 11 466 13 l463 2 -4 168 c-3 163
-4 170 -30 209 -49 74 -38 73 -560 73 l-463 0 -38 -25z m821 -181 c12 -8 22
-24 22 -35 0 -18 -10 -19 -340 -19 -230 0 -340 3 -340 10 0 6 11 22 25 35 l24
25 293 0 c250 0 297 -2 316 -16z"/>
<path d="M5479 697 c-18 -12 -44 -38 -56 -56 -23 -33 -23 -38 -23 -337 l0
-304 115 0 115 0 0 239 c0 226 1 240 21 265 l20 26 412 2 412 3 3 93 3 92
-494 0 -494 0 -34 -23z"/>
</g>
</svg>
